# xmcd
#
# Track frame offsets:
#	187
#	16037
#	40225
#	60965
#	79657
#	96182
#	115095
#	132582
#
# Disc length: 2020 seconds
#
# Revision: 2
# Processed by: cddbd v1.4PL0 Copyright (c) Steve Scherf et al.
# Submitted via: EZCDDA 4.3.2
#
DISCID=5907e208
DTITLE=Cameo - Knights of the sound table
DYEAR=1900
DGENRE=
TTITLE0=Knights by nights
TTITLE1=Freaky dancin'
TTITLE2=I never knew
TTITLE3=Use it or lose it
TTITLE4=The sound table
TTITLE5=Don't be so cool
TTITLE6=I'll always stay
TTITLE7=I like it
EXTD=
EXTT0=
EXTT1=
EXTT2=
EXTT3=
EXTT4=
EXTT5=
EXTT6=
EXTT7=
PLAYORDER=
